<svg width="1918" height="524" viewBox="0 0 1918 524" fill="none" xmlns="http://www.w3.org/2000/svg">
<path fill-rule="evenodd" clip-rule="evenodd" d="M0 235.613L46 225.613C91 216.613 183 197.613 274 206.613C366 216.613 457 254.613 549 312.613C640 369.613 731 419 823 400C914 381 1006 293.613 1097 254.613C1189 216.613 1280 254.613 1371 245.613C1463 235.613 1554 177.613 1646 168.613C1737 158.613 1829 197.613 1874 216.613L1920 235.613V523.613H1874C1829 523.613 1737 523.613 1646 523.613C1554 523.613 1463 523.613 1371 523.613C1280 523.613 1189 523.613 1097 523.613C1006 523.613 914 523.613 823 523.613C731 523.613 640 523.613 549 523.613C457 523.613 366 523.613 274 523.613C183 523.613 91 523.613 46 523.613H0V235.613Z" fill="url(#paint0_linear_304_23)"/>
<rect x="397" y="178" width="27" height="79" fill="#9F7535"/>
<path opacity="0.1" d="M408 178H424V257H408V178Z" fill="black"/>
<path fill-rule="evenodd" clip-rule="evenodd" d="M443 32.5C443 40.6513 439.999 48.1017 435.042 53.8068C444.162 61.1382 450 72.3874 450 85C450 89.6771 449.197 94.1667 447.722 98.3386C461.312 109.338 470 126.155 470 145C470 178.137 443.137 205 410 205C376.863 205 350 178.137 350 145C350 126.155 358.688 109.338 372.278 98.3386C370.803 94.1667 370 89.6771 370 85C370 72.1138 376.093 60.6508 385.556 53.3353C380.839 47.6941 378 40.4286 378 32.5C378 14.5507 392.551 0 410.5 0C428.449 0 443 14.5507 443 32.5Z" fill="url(#paint1_linear_304_23)"/>
<path opacity="0.1" fill-rule="evenodd" clip-rule="evenodd" d="M410 205C443.137 205 470 178.137 470 145C470 126.155 461.312 109.338 447.722 98.3386C449.197 94.1667 450 89.6771 450 85C450 72.3874 444.162 61.1382 435.042 53.8068C439.999 48.1017 443 40.6513 443 32.5C443 14.5507 428.449 0 410.5 0C410.333 0 410.166 0.00125903 410 0.00376812V205Z" fill="black"/>
<defs>
<linearGradient id="paint0_linear_304_23" x1="51.5" y1="193" x2="1975" y2="305.5" gradientUnits="userSpaceOnUse">
<stop stop-color="#8AE290"/>
<stop offset="1" stop-color="#68BA83"/>
</linearGradient>
<linearGradient id="paint1_linear_304_23" x1="410" y1="0" x2="410" y2="205" gradientUnits="userSpaceOnUse">
<stop stop-color="#6DBF7E"/>
<stop offset="1" stop-color="#5DAB77"/>
</linearGradient>
</defs>
</svg>
