<svg width="120" height="120" viewBox="0 0 120 120" fill="none" xmlns="http://www.w3.org/2000/svg">
<path d="M3.42778 42.2277C3.42778 42.2277 0.589968 40.1737 3.99966 37.4343L11.9384 30.3149C11.9384 30.3149 14.2128 27.9159 16.6156 30.0074L89.9047 85.6274V112.299C89.9047 112.299 89.8681 116.488 84.5075 116.027L3.42778 42.2277Z" fill="#2489CA"/>
<path d="M22.3214 59.4177L3.42793 76.633C3.42793 76.633 1.4873 78.0796 3.42793 80.669L12.1992 88.663C12.1992 88.663 14.2823 90.9084 17.3629 88.3555L37.387 73.1324L22.3214 59.4177Z" fill="#1070B3"/>
<path d="M55.4852 59.5604L90.1286 33.0432L89.9045 6.51481C89.9045 6.51481 88.4252 0.724809 83.4892 3.74075L37.3867 45.7979L55.4852 59.5604Z" fill="#0877B9"/>
<path d="M84.5064 116.06C86.5174 118.125 88.9568 117.447 88.9568 117.447L115.954 104.114C119.411 101.752 118.927 98.8219 118.927 98.8219V19.186C118.927 15.6844 115.353 14.476 115.353 14.476L91.9521 3.16881C86.8399 0.00100005 83.4893 3.74069 83.4893 3.74069C83.4893 3.74069 87.7952 0.631 89.9046 6.51569V111.813C89.9046 112.538 89.7508 113.247 89.4433 113.889C88.8283 115.137 87.4877 116.298 84.2833 115.811L84.5064 116.06Z" fill="#3C99D4"/>
</svg>
