<svg width="40" height="40" viewBox="0 0 40 40" fill="none" xmlns="http://www.w3.org/2000/svg">
<path d="M20 0C21.3807 0 22.5 0.89543 22.5 2V21.6536C22.5 22.3665 23.2348 22.8426 23.8855 22.5513V22.5513C23.9615 22.5172 24.032 22.474 24.0982 22.4234C25.3134 21.4933 30.8201 17.8277 31.7678 18.5858C32.7441 19.3668 32.7441 20.6332 31.7678 21.4142L21.7678 29.4142C20.7915 30.1953 19.2085 30.1953 18.2322 29.4142L8.23223 21.4142C7.25592 20.6332 7.25592 19.3668 8.23223 18.5858C9.15805 17.8451 13.9855 21.3266 15.3149 22.3547C15.4397 22.4513 15.5765 22.5257 15.7261 22.5759V22.5759C16.5979 22.8687 17.5 22.22 17.5 21.3003V2C17.5 0.89543 18.6193 0 20 0ZM2.5 30C3.88071 30 5 30.8954 5 32V32C5 34.2091 6.79086 36 9 36H31C33.2091 36 35 34.2091 35 32V32C35 30.8954 36.1193 30 37.5 30C38.8807 30 40 30.8954 40 32V36C40 38.2091 37.7614 40 35 40H5C2.23858 40 0 38.2091 0 36V32C0 30.8954 1.11929 30 2.5 30Z" fill="#E68D8D"/>
</svg>
