<svg width="128" height="128" viewBox="0 0 128 128" fill="none" xmlns="http://www.w3.org/2000/svg">
<path d="M11.95 24.3479C6.11403 24.3479 1.33203 29.2149 1.33203 35.0289V92.9709C1.33203 98.7849 6.11403 103.652 11.949 103.652H116.051C121.886 103.652 126.668 98.7849 126.668 92.9709V35.0299C126.668 29.2159 121.885 24.3489 116.051 24.3489H14.898L14.896 24.3469H11.95V24.3479ZM11.943 33.8909H116.051C116.676 33.8909 117.127 34.3139 117.127 35.0309V92.9709C117.127 93.6879 116.674 94.1109 116.051 94.1109H11.949C11.326 94.1109 10.873 93.6879 10.873 92.9709V35.0289C10.873 34.3139 11.324 33.8939 11.943 33.8909Z" fill="black"/>
<path d="M20.7207 84.0999V43.8999H32.4197L44.1167 58.6799L55.8097 43.8999H67.5057V84.0999H55.8097V61.0439L44.1157 75.8239L32.4177 61.0439V84.0999H20.7217H20.7207ZM93.8247 84.0999L76.2797 64.5909H87.9767V43.8999H99.6747V64.5899H111.373L93.8247 84.0999Z" fill="black"/>
</svg>
