<svg width="128" height="128" viewBox="0 0 128 128" fill="none" xmlns="http://www.w3.org/2000/svg">
<g clip-path="url(#clip0_325_197)">
<path d="M118.002 -0.0012207H10.0016C4.47841 -0.0012207 0.000976562 4.47622 0.000976562 9.99941V117.999C0.000976562 123.523 4.47841 128 10.0016 128H118.002C123.525 128 128.002 123.523 128.002 117.999V9.99941C128.002 4.47622 123.525 -0.0012207 118.002 -0.0012207Z" fill="black"/>
<path d="M16.5555 114.432C15.4368 113.676 13.9287 111.937 13.2031 110.565C11.8047 107.912 9.07206 105.013 6.2941 103.229C4.3741 101.997 3.31961 98.3042 4.48748 96.8983C4.87678 96.4296 6.52466 95.6888 8.14986 95.2504C9.77505 94.8157 11.3738 94.2148 11.7026 93.92C12.0314 93.6214 12.33 91.486 12.3678 89.1729C12.5908 75.0072 12.7004 74.6595 17.0355 74.6595C22.1757 74.6595 25.6529 80.8012 23.9634 86.8938C22.7653 91.2138 23.0034 92.1474 25.3089 92.1323C28.8314 92.1172 29.0204 91.7127 29.1792 83.9458C29.421 72.2293 31.9874 68.5027 37.8796 71.3108C41.6138 73.0948 42.1656 77.925 39.6107 86.5235C38.7716 89.3354 40.4308 100.98 42.1656 104.495C43.1445 106.476 42.0976 109.257 40.2721 109.518C39.4406 109.635 38.0799 109.057 36.9574 108.112C35.9067 107.228 34.8296 106.506 34.5574 106.506C34.2891 106.506 33.2875 105.383 32.3351 104.011C30.6796 101.615 28.7823 100.806 27.9622 102.137C27.7505 102.477 26.3029 103.082 24.7495 103.471C22.0207 104.159 21.93 104.257 22.274 106.128C23.302 111.669 23.3096 113.876 22.3193 114.87C20.9662 116.227 19.0084 116.079 16.5593 114.432H16.5555ZM79.8249 105.761C78.4718 104.975 75.8337 102.038 74.6658 100.016C74.2501 99.2907 73.8948 97.348 73.8834 95.6926C73.8532 91.2705 75.709 88.485 76.6727 91.5162C77.5836 94.3886 80.9663 95.6813 82.5575 93.7575C83.8425 92.2079 81.6919 88.5871 76.3628 83.326C71.5704 78.6016 71.3625 78.2803 71.3625 75.559C71.3625 71.3373 72.5719 69.5874 76.9071 67.5124C80.5127 65.7927 80.8226 65.7436 83.37 66.56C86.8283 67.6712 90.8913 71.5867 90.6116 73.537C90.4416 74.7578 90.0447 74.9732 87.9131 74.9732C86.5373 74.9732 85.0633 75.2 84.6324 75.4759C83.3587 76.3036 83.7442 78.1896 85.4148 79.2856C86.953 80.291 86.9757 80.2834 86.9757 78.5335C86.9757 76.8176 87.1382 76.7269 92.4409 75.5553L97.9023 74.3458L98.3483 69.4324C99.1005 61.1628 101.489 59.5301 106.21 64.0655C107.65 65.4526 108.874 66.9266 108.927 67.3423C108.98 67.7581 109.052 68.5215 109.086 69.0393C109.135 69.8104 110.088 69.9389 114.532 69.7575C119.718 69.5496 119.99 69.6063 121.865 71.3184C123.203 72.5392 123.86 73.7675 123.97 75.2378C124.106 77.0444 123.811 77.5962 122.05 78.7981C120.908 79.5805 117.182 81.1112 113.776 82.1997C108.886 83.7568 107.582 84.4183 107.582 85.3253C107.582 85.9603 107.903 89.2863 108.292 92.7219C109.097 99.7896 108.583 102.103 105.949 103.305C103.628 104.363 103.016 104.197 100.828 101.936C98.2652 99.2945 97.4715 96.509 97.9855 91.9206C98.4579 87.6762 98.1821 87.3549 94.2967 87.6649L91.5301 87.8841L92.4371 90.4806C93.023 92.1587 93.2233 94.298 93.0041 96.5128C92.7206 99.4154 92.3464 100.224 90.6003 101.729C85.4261 106.177 82.4554 107.284 79.8286 105.761H79.8249ZM54.3886 105.24C51.3915 104.722 47.0374 101.354 44.4144 97.5219C42.5436 94.7855 42.3319 94.0372 42.3735 90.3408C42.434 85.5294 43.9307 79.9357 45.8015 77.5584C47.2831 75.6724 51.7996 73.4085 54.0787 73.4085C55.462 73.4085 58.6633 74.5839 63.5578 76.8932C67.7833 78.8812 68.5165 80.1209 69.4463 86.8069L70.1341 91.7392L67.8551 96.5959C66.6003 99.2643 64.9448 102.042 64.1738 102.764C62.3596 104.469 57.314 105.746 54.3886 105.24ZM55.9647 93.4324C58.2097 92.5783 59.336 88.8781 57.9792 86.8107C57.4274 85.9641 56.611 85.2724 56.165 85.2724C53.6781 85.2724 51.0475 91.1761 52.6689 93.1263C53.5382 94.1732 53.9162 94.211 55.9647 93.4286V93.4324ZM20.7206 62.0132C19.5262 61.2195 17.9124 59.2352 17.0355 57.4853C15.6144 54.6431 15.4897 53.7549 15.6447 47.5641L15.811 40.7609L12.0541 37.1552C9.98671 35.1672 8.29347 33.4286 8.29347 33.2925C8.29347 33.1565 7.73033 30.4125 7.04623 27.1999C6.35836 23.9873 5.7952 19.8677 5.7952 18.0459C5.7952 15.1962 6.01441 14.5952 7.37504 13.6995C9.84686 12.0856 12.5492 13.1703 14.953 16.7458C16.548 19.1193 17.0129 20.582 17.3643 24.3615C17.8292 29.29 18.6494 30.6847 20.7055 30.0308C21.9338 29.6453 25.4941 25.9489 26.764 23.7492C27.4066 22.6343 27.5577 22.6532 30.3017 24.2633C32.3766 25.4765 33.3744 26.5574 33.8998 28.1448C34.5499 30.1102 34.4554 30.6355 33.0343 33.0582C31.9349 34.8229 30.6054 36.4333 29.0809 37.8469C27.7807 38.9883 26.6809 40.5039 26.6431 41.2107C26.3407 46.5096 25.0255 62.0094 24.8214 62.6406C24.4434 63.7934 23.1017 63.5893 20.7206 62.0132ZM43.5489 57.5458C40.6463 56.2797 36.6588 51.3663 35.7631 47.9571C34.8182 44.3439 34.8787 29.4412 35.85 25.571C36.228 24.0592 36.8667 22.827 37.2598 22.827C38.4541 22.827 42.5587 25.8809 43.3599 27.3663C43.8059 28.1864 44.165 31.811 44.2368 36.1839C44.3426 42.5864 44.5127 43.6976 45.4727 44.2343C46.3193 44.7105 46.788 44.5858 47.4229 43.7165C47.884 43.0853 48.262 42.1329 48.2658 41.6C48.2733 41.0633 48.9726 38.4365 49.8267 35.7606C50.6809 33.0885 51.4103 29.5735 51.4444 27.9559C51.5766 21.7385 52.9448 20.3477 56.2179 23.1029C60.0428 26.3193 60.2431 33.5836 56.8982 47.8059C55.5678 53.4828 54.2337 55.4255 50.3219 57.4097C47.9256 58.6192 46.1039 58.657 43.5451 57.5458H43.5489ZM65.0091 56.2192C61.6756 54.4806 61.0595 53.222 61.9023 49.8696C63.7732 42.4315 64.136 33.5911 62.885 26.0207C62.4844 23.5905 62.6015 23.1596 63.9319 22.1354C64.7559 21.5004 66.0296 20.9751 66.759 20.9675C68.5278 20.9486 72.6135 25.4576 74.3861 29.3845C76.9751 35.1294 77.9162 36.7659 78.4718 36.5089C78.7741 36.3691 79.0954 32.034 79.1861 26.8787C79.3298 18.6129 79.5112 17.1918 80.7282 14.8598C81.4841 13.4009 82.497 12.2141 82.9694 12.2141C83.4457 12.2141 84.6097 13.4047 85.5546 14.8673C86.4995 16.3262 87.5351 17.702 87.8488 17.9288C88.1625 18.1555 88.3137 21.387 88.1852 25.1099C88.0496 29.1348 87.9991 33.1622 88.034 37.1892C88.3364 54.7225 88.2381 55.7203 86.1367 56.5178C84.1449 57.2737 81.0041 55.7392 77.2245 52.1637C75.4141 50.4554 73.6907 49.057 73.3883 49.057C73.086 49.057 72.3376 50.6708 71.7215 52.6475C69.9187 58.4151 69.5748 58.5965 65.0091 56.2192ZM98.5297 50.8296C92.7093 47.6774 90.7326 44.7937 90.2639 38.7729C89.8898 33.988 91.9269 25.4954 94.1417 22.5927C95.011 21.4551 95.7178 20.2116 95.7178 19.8336C95.7178 19.4519 96.965 18.284 98.4844 17.2371C102.037 14.7955 105.325 14.6897 108.602 16.9121C113.198 20.0302 113.867 22.4415 114.06 36.5656C114.135 42.027 113.999 42.7376 112.378 45.4967C111.407 47.1483 109.989 48.7319 109.23 49.0229C108.466 49.314 107.499 49.9641 107.079 50.4705C106.161 51.5779 100.359 51.8236 98.5297 50.8296ZM104.721 35.7341C106.792 31.5842 106.516 28.9234 103.976 28.5606C102.85 28.3981 102.358 28.8818 101.414 31.0815C99.6523 35.1937 99.2328 37.7184 100.132 38.8031C101.474 40.417 102.835 39.5061 104.721 35.7341Z" fill="white"/>
</g>
<defs>
<clipPath id="clip0_325_197">
<rect width="128" height="128" fill="white"/>
</clipPath>
</defs>
</svg>
